# xmcd
#
# Track frame offsets: 
#        300
#        34109
#        53128
#        83555
#        105485
#        135354
#        162193
#        185137
#        206900
#        230054
#        244228
#
# Disc length: 3524 seconds
#
# Revision: 4
# Processed by: cddbd v1.5.2PL0 Copyright (c) Steve Scherf et al.
# Submitted via: ExactAudioCopy v1.0b1
#
DISCID=940dc00b
DTITLE=Jimmy Dawkins - West Side Guitar Hero
DYEAR=2002
DGENRE=Blues
TTITLE0=Alley Mae
TTITLE1=Jammin' Gitar
TTITLE2=Go On Baby
TTITLE3=I'm What U Need
TTITLE4=Sweet Li'l Mama
TTITLE5=Everybody's Jumping
TTITLE6=Dollar Head Woman
TTITLE7=Wess Cide Rock
TTITLE8=Shee Leff Me
TTITLE9=So Wurrid
TTITLE10=U Made Me Luv U
EXTD=
EXTT0=
EXTT1=
EXTT2=
EXTT3=
EXTT4=
EXTT5=
EXTT6=
EXTT7=
EXTT8=
EXTT9=
EXTT10=
PLAYORDER=
